<?xml version="1.0" encoding="UTF-8"?>
<svg id="Layer_1" xmlns="http://www.w3.org/2000/svg" version="1.1" viewBox="1250 800 2500 2400">
  <defs>
    <style>
      .st0 {
        fill: none;
      }

      .st1 {
        fill: #244065;
      }

      .st1, .st2 {
        fill-rule: evenodd;
      }

      .st2 {
        fill: #a22430;
      }
    </style>
  </defs>
  <g>
    <path class="st2" d="M2310.67,1573.62c57.86-25.73,121.93-40.03,189.33-40.03s131.47,14.3,189.33,40.03c35.26-41.07,71.59-81.52,108.45-121.19-88.47-48.22-189.94-75.62-297.79-75.62s-209.31,27.4-297.79,75.62c36.86,39.67,73.19,80.12,108.45,121.19"/>
    <path class="st2" d="M2926.38,1810.67c25.73,57.86,40.03,121.93,40.03,189.33s-14.3,131.47-40.03,189.33c41.07,35.26,81.52,71.59,121.19,108.45,48.21-88.47,75.61-189.93,75.61-297.79s-27.4-209.31-75.61-297.79c-39.67,36.86-80.12,73.19-121.19,108.45"/>
    <path class="st2" d="M2500,2466.41c-67.41,0-131.47-14.3-189.33-40.03-35.26,41.07-71.59,81.52-108.45,121.19,88.47,48.22,189.93,75.61,297.79,75.61s209.31-27.4,297.79-75.61c-36.86-39.67-73.19-80.12-108.45-121.19-57.86,25.73-121.93,40.03-189.33,40.03"/>
    <path class="st2" d="M2073.62,2189.33c-25.73-57.86-40.03-121.92-40.03-189.33s14.3-131.47,40.03-189.33c-41.07-35.27-81.52-71.59-121.19-108.45-48.22,88.47-75.61,189.93-75.61,297.79s27.4,209.31,75.61,297.79c39.67-36.86,80.12-73.19,121.19-108.45"/>
    <path class="st1" d="M3152.95,1187.17c58.88,47.37,112.52,101,159.88,159.88,230.25-250.15,374.03-457.97,336.06-495.94-35.77-35.77-222.3,89.78-452.96,296.97-194.84-139.47-438.49-212.84-695.94-190.66,247.17,0,474.26,86.02,652.95,229.74M3648.89,3148.89c35.77-35.77-89.78-222.3-296.97-452.95,139.47-194.85,212.84-438.49,190.66-695.94,0,247.18-86.01,474.26-229.75,652.95h0c-47.36,58.89-101,112.52-159.88,159.88,250.15,230.25,457.97,374.03,495.94,336.06ZM1351.11,3148.89c35.77,35.77,222.3-89.78,452.96-296.97,194.84,139.47,438.49,212.84,695.93,190.66-247.17,0-474.26-86.02-652.95-229.75h0c-58.89-47.36-112.52-100.99-159.88-159.88-230.25,250.15-374.03,457.97-336.06,495.94ZM1351.11,851.11c-35.77,35.77,89.78,222.3,296.97,452.96h0c-139.47,194.85-212.84,438.49-190.66,695.94,0-247.18,86.01-474.26,229.75-652.95,47.36-58.89,101-112.52,159.88-159.88-250.15-230.24-457.97-374.02-495.94-336.06ZM3225.1,1440.03c138.13,149.12,231.23,342.36,254.77,559.97,0-229.04-78.59-439.73-210.26-606.57-47.76-60.52-102.51-115.27-163.04-163.04-37.8,35.67-76.36,73.11-115.27,112.01-161.93,161.93-298.49,317.88-387.31,437.91-65.65-31.08-142.35-31.08-207.99,0-88.82-120.02-225.38-275.98-387.3-437.91-23.04-23.04-45.96-45.56-68.66-67.51,149.12-138.13,342.35-231.22,559.96-254.76-229.04,0-439.73,78.58-606.57,210.26h0c-60.52,47.76-115.27,102.51-163.03,163.03,35.67,37.8,73.11,76.36,112.01,115.26,161.93,161.93,317.89,298.49,437.91,387.31-31.07,65.65-31.07,142.34,0,207.99-120.03,88.82-275.98,225.38-437.91,387.31-23.04,23.04-45.56,45.95-67.51,68.66-138.13-149.12-231.23-342.35-254.77-559.97,0,229.05,78.59,439.72,210.27,606.57h0s0,0,0,0c47.76,60.52,102.51,115.27,163.03,163.03,37.8-35.67,76.36-73.11,115.27-112.01,161.93-161.93,298.48-317.89,387.31-437.91,65.65,31.07,142.34,31.07,207.99,0,88.82,120.02,225.37,275.98,387.3,437.91,23.04,23.04,45.96,45.56,68.67,67.51h0c-149.12,138.13-342.35,231.23-559.97,254.77,229.04,0,439.73-78.59,606.57-210.27h0c60.52-47.76,115.28-102.52,163.04-163.04-35.67-37.8-73.11-76.36-112.02-115.26-161.92-161.93-317.88-298.49-437.91-387.31,31.07-65.65,31.07-142.34,0-207.99,120.03-88.82,275.99-225.38,437.91-387.31,23.04-23.04,45.56-45.95,67.51-68.66Z"/>
  </g>
  </svg>